<?xml version="1.0" encoding="UTF-8"?>
<svg id="Layer_1" data-name="Layer 1" xmlns="http://www.w3.org/2000/svg" viewBox="0 0 1391.79 299.64">
  <defs>
    <style>
      .cls-1 {
        fill: #30b1f9;
      }

      .cls-2 {
        fill: #0f172a;
      }
    </style>
  </defs>
  <g>
    <path class="cls-2" d="M328.5,84.92h75.27v18.19h-55.51v25.14h45.7v18.19h-45.7v31.15h55.51v18.19l-75.27-.16v-110.69Z"/>
    <path class="cls-2" d="M452,115.12c6.54,0,11.88,1.08,16.05,3.24,4.16,2.16,7.48,4.9,9.96,8.22,2.48,3.32,4.24,6.93,5.3,10.83,1.05,3.9,1.69,7.59,1.9,11.07l3.16,47.12h-18.98v-46.65c0-2.85-.47-5.27-1.42-7.27-.95-2-2.21-3.69-3.8-5.06-1.58-1.37-3.43-2.37-5.53-3-2.11-.63-4.32-.95-6.64-.95s-4.53.32-6.64.95c-2.11.63-3.95,1.64-5.54,3-1.58,1.37-2.85,3.06-3.79,5.06-.95,2-1.42,4.43-1.42,7.27v46.65h-18.98v-47.12c0-3.48.66-7.17,1.98-11.07,1.32-3.9,3.45-7.51,6.4-10.83,2.95-3.32,6.72-6.06,11.31-8.22,4.59-2.16,10.15-3.24,16.68-3.24ZM505.76,115.12c6.54,0,12.1,1.08,16.68,3.24,4.59,2.16,8.35,4.9,11.31,8.22,2.95,3.32,5.09,6.93,6.4,10.83,1.32,3.9,1.98,7.59,1.98,11.07v47.12h-18.98v-46.65c0-2.85-.47-5.27-1.42-7.27-.95-2-2.21-3.69-3.8-5.06-1.58-1.37-3.43-2.37-5.53-3-2.11-.63-4.32-.95-6.64-.95s-4.53.32-6.64.95c-2.11.63-3.95,1.64-5.53,3-1.58,1.37-2.85,3.06-3.8,5.06-.95,2-1.42,4.43-1.42,7.27v46.65h-18.98l3.16-47.12c.21-3.48.84-7.17,1.9-11.07,1.05-3.9,2.82-7.51,5.3-10.83,2.48-3.32,5.8-6.06,9.96-8.22,4.16-2.16,9.51-3.24,16.05-3.24Z"/>
    <path class="cls-2" d="M554.78,227.24v-71.32c0-6.33,1.08-12.02,3.24-17.08,2.16-5.06,5.08-9.33,8.78-12.81,3.69-3.48,8.06-6.14,13.13-7.99,5.06-1.84,10.49-2.77,16.29-2.77s11.46.98,16.37,2.93c4.9,1.95,9.14,4.72,12.73,8.3,3.58,3.59,6.35,7.85,8.3,12.81,1.95,4.96,2.93,10.49,2.93,16.6s-.98,11.7-2.93,16.76c-1.95,5.06-4.67,9.38-8.15,12.97-3.48,3.59-7.64,6.35-12.49,8.3-4.85,1.95-10.12,2.92-15.81,2.92s-10.55-.9-14.55-2.69c-4.01-1.79-6.96-3.9-8.85-6.33v39.38h-18.98ZM617.56,156.08c0-7.38-1.98-13.12-5.93-17.24-3.95-4.11-9.25-6.17-15.89-6.17s-11.97,2.06-15.97,6.17c-4.01,4.11-6.01,9.86-6.01,17.24s2,13.13,6.01,17.24c4,4.11,9.33,6.17,15.97,6.17s11.94-2.06,15.89-6.17c3.95-4.11,5.93-9.86,5.93-17.24Z"/>
    <path class="cls-2" d="M647.77,84.92h18.98v110.69h-18.98v-110.69Z"/>
    <path class="cls-2" d="M677.97,156.08c0-6.11.97-11.67,2.93-16.68,1.95-5.01,4.72-9.28,8.3-12.81,3.58-3.53,7.91-6.27,12.97-8.22,5.06-1.95,10.65-2.93,16.76-2.93s11.67.98,16.68,2.93c5.01,1.95,9.3,4.69,12.89,8.22,3.58,3.53,6.35,7.8,8.3,12.81,1.95,5.01,2.93,10.57,2.93,16.68s-.98,11.7-2.93,16.76c-1.95,5.06-4.72,9.38-8.3,12.97s-7.88,6.35-12.89,8.3c-5.01,1.95-10.57,2.92-16.68,2.92s-11.7-.98-16.76-2.92c-5.06-1.95-9.38-4.72-12.97-8.3-3.59-3.58-6.35-7.91-8.3-12.97-1.95-5.06-2.93-10.65-2.93-16.76ZM696.95,156.24c0,7.38,1.98,13.13,5.93,17.24s9.25,6.17,15.89,6.17,11.96-2.06,15.97-6.17c4-4.11,6.01-9.86,6.01-17.24s-2-13.12-6.01-17.24c-4.01-4.11-9.33-6.17-15.97-6.17s-11.94,2.06-15.89,6.17-5.93,9.86-5.93,17.24Z"/>
    <path class="cls-2" d="M761.15,116.55h19.77l18.98,54.71,18.98-54.71h19.77l-27.99,79.07c-1.58,4.64-3.19,9.28-4.82,13.92-1.64,4.64-3.77,8.83-6.4,12.57-2.64,3.74-6.04,6.77-10.2,9.09-4.17,2.32-9.57,3.48-16.21,3.48v-17.4c2.63,0,5.08-.74,7.35-2.21,2.27-1.48,4.16-3.38,5.69-5.69,1.53-2.32,2.53-4.88,3-7.67.47-2.79.24-5.51-.71-8.14l-27.2-77.01Z"/>
    <path class="cls-2" d="M881.17,179.64c8.01,0,13.97-2.85,17.87-8.54h20.72c-2.64,8.01-7.3,14.34-14,18.98-6.7,4.64-14.84,6.96-24.43,6.96-6.12,0-11.7-.98-16.76-2.92-5.06-1.95-9.38-4.72-12.97-8.3-3.58-3.58-6.35-7.91-8.3-12.97-1.95-5.06-2.93-10.65-2.93-16.76s.97-11.67,2.93-16.68c1.95-5.01,4.72-9.28,8.3-12.81,3.58-3.53,7.91-6.27,12.97-8.22,5.06-1.95,10.65-2.93,16.76-2.93s11.67.98,16.68,2.93c5.01,1.95,9.3,4.69,12.89,8.22,3.58,3.53,6.35,7.8,8.3,12.81,1.95,5.01,2.93,10.57,2.93,16.68,0,1.16-.03,2.24-.08,3.24-.05,1-.13,2.03-.24,3.08h-61.83c1.05,5.48,3.42,9.72,7.12,12.73,3.69,3,8.38,4.51,14.07,4.51ZM901.1,145.01c-1.69-3.9-4.25-6.9-7.67-9.01-3.43-2.11-7.51-3.16-12.25-3.16s-8.8,1.06-12.18,3.16c-3.38,2.11-5.91,5.11-7.59,9.01h39.69Z"/>
    <path class="cls-2" d="M973.52,179.64c8.01,0,13.97-2.85,17.87-8.54h20.72c-2.64,8.01-7.3,14.34-14,18.98-6.7,4.64-14.84,6.96-24.43,6.96-6.12,0-11.7-.98-16.76-2.92-5.06-1.95-9.38-4.72-12.97-8.3-3.58-3.58-6.35-7.91-8.3-12.97-1.95-5.06-2.93-10.65-2.93-16.76s.97-11.67,2.93-16.68c1.95-5.01,4.72-9.28,8.3-12.81,3.58-3.53,7.91-6.27,12.97-8.22,5.06-1.95,10.65-2.93,16.76-2.93s11.67.98,16.68,2.93c5.01,1.95,9.3,4.69,12.89,8.22,3.58,3.53,6.35,7.8,8.3,12.81,1.95,5.01,2.93,10.57,2.93,16.68,0,1.16-.03,2.24-.08,3.24-.05,1-.13,2.03-.24,3.08h-61.83c1.05,5.48,3.42,9.72,7.12,12.73,3.69,3,8.38,4.51,14.07,4.51ZM993.44,145.01c-1.69-3.9-4.25-6.9-7.67-9.01-3.43-2.11-7.51-3.16-12.25-3.16s-8.8,1.06-12.18,3.16c-3.38,2.11-5.91,5.11-7.59,9.01h39.69Z"/>
    <path class="cls-1" d="M1045.63,195.61l-34.95-110.69h20.4l24.51,78.91,24.35-78.91h20.4l-34.95,110.69h-19.77Z"/>
    <path class="cls-1" d="M1095.76,156.08c0-6.11.97-11.67,2.93-16.68,1.95-5.01,4.72-9.28,8.3-12.81,3.58-3.53,7.91-6.27,12.97-8.22,5.06-1.95,10.65-2.93,16.76-2.93s11.67.98,16.68,2.93c5.01,1.95,9.3,4.69,12.89,8.22,3.58,3.53,6.35,7.8,8.3,12.81,1.95,5.01,2.93,10.57,2.93,16.68s-.98,11.7-2.93,16.76c-1.95,5.06-4.72,9.38-8.3,12.97s-7.88,6.35-12.89,8.3c-5.01,1.95-10.57,2.92-16.68,2.92s-11.7-.98-16.76-2.92c-5.06-1.95-9.38-4.72-12.97-8.3-3.58-3.58-6.35-7.91-8.3-12.97-1.95-5.06-2.93-10.65-2.93-16.76ZM1114.73,156.24c0,7.38,1.98,13.13,5.93,17.24s9.25,6.17,15.89,6.17,11.96-2.06,15.97-6.17c4-4.11,6.01-9.86,6.01-17.24s-2-13.12-6.01-17.24c-4.01-4.11-9.33-6.17-15.97-6.17s-11.94,2.06-15.89,6.17-5.93,9.86-5.93,17.24Z"/>
    <path class="cls-1" d="M1188.58,93.62c0-2.85,1-5.3,3-7.35,2-2.06,4.48-3.08,7.43-3.08s5.43,1.03,7.43,3.08c2,2.06,3,4.51,3,7.35,0,3.06-1,5.59-3,7.59-2,2-4.48,3-7.43,3s-5.43-1-7.43-3c-2-2-3-4.53-3-7.59ZM1189.53,116.55h18.98v79.07h-18.98v-79.07Z"/>
    <path class="cls-1" d="M1237.76,156.24c0,7.38,1.98,13.13,5.93,17.24s9.25,6.17,15.89,6.17c4.85,0,8.99-1.11,12.41-3.32,3.42-2.21,5.98-5.32,7.67-9.33h19.77c-2.11,9.28-6.64,16.6-13.6,21.98s-15.66,8.06-26.09,8.06c-6.12,0-11.7-.98-16.76-2.92-5.06-1.95-9.38-4.72-12.97-8.3-3.58-3.58-6.35-7.91-8.3-12.97-1.95-5.06-2.93-10.65-2.93-16.76s.97-11.67,2.93-16.68c1.95-5.01,4.72-9.28,8.3-12.81,3.58-3.53,7.91-6.27,12.97-8.22,5.06-1.95,10.65-2.93,16.76-2.93,10.33,0,18.98,2.66,25.93,7.99,6.96,5.32,11.49,12.52,13.6,21.59h-19.77c-1.69-3.9-4.25-6.9-7.67-9.01-3.43-2.11-7.51-3.16-12.26-3.16-6.64,0-11.94,2.06-15.89,6.17s-5.93,9.86-5.93,17.24Z"/>
    <path class="cls-1" d="M1348.3,179.64c8.01,0,13.97-2.85,17.87-8.54h20.72c-2.64,8.01-7.3,14.34-14,18.98-6.7,4.64-14.84,6.96-24.43,6.96-6.12,0-11.7-.98-16.76-2.92-5.06-1.95-9.38-4.72-12.97-8.3-3.58-3.58-6.35-7.91-8.3-12.97-1.95-5.06-2.93-10.65-2.93-16.76s.97-11.67,2.93-16.68c1.95-5.01,4.72-9.28,8.3-12.81,3.58-3.53,7.91-6.27,12.97-8.22,5.06-1.95,10.65-2.93,16.76-2.93s11.67.98,16.68,2.93c5.01,1.95,9.3,4.69,12.89,8.22,3.58,3.53,6.35,7.8,8.3,12.81,1.95,5.01,2.93,10.57,2.93,16.68,0,1.16-.03,2.24-.08,3.24-.05,1-.13,2.03-.24,3.08h-61.83c1.05,5.48,3.42,9.72,7.12,12.73,3.69,3,8.38,4.51,14.07,4.51ZM1368.22,145.01c-1.69-3.9-4.25-6.9-7.67-9.01-3.43-2.11-7.51-3.16-12.25-3.16s-8.8,1.06-12.18,3.16c-3.38,2.11-5.91,5.11-7.59,9.01h39.69Z"/>
  </g>
  <path class="cls-1" d="M239.38,56.17C214.2,19.56,169.08-2.33,124.48.2,53.77,4.2-2.26,63.91.36,135.09c1.14,43.79-1.64,88.42.43,132.07.7,14.74,3.28,25.2,18.7,30.58,19.01,6.63,27.38-5.39,40.23-15.37,13.66-10.61,29.6-18.5,46.63-21.97,18.49-3.76,36.83-1.33,55.74-5.37,90.96-19.43,129.85-122.42,77.28-198.86ZM213.26,146.54c-.72,8.42-18.68,26.32-25.43,31.73-38.9,31.15-80.66,28.63-117.28-4.52-5.24-4.74-17.83-18.27-19.9-24.65-2.01-6.21,1.75-12.91,8.38-13.7,5.04-.6,8.21,3.39,12.03,5.9,35.06,23.09,77.99,26.73,114.58,4.41,3.91-2.38,13.08-10.02,16.84-10.37,6.25-.59,11.32,5.04,10.79,11.19Z"/>
</svg>